<svg width="23" height="24" viewBox="0 0 23 24" fill="none" xmlns="http://www.w3.org/2000/svg">
<path d="M11.4924 15.2508C7.62816 15.2604 4.21624 12.1083 4.21143 7.912C4.21143 3.99479 7.52229 0.683962 11.4588 0.674338C15.4626 0.664713 18.7879 3.94672 18.7927 7.90724C18.7927 11.9688 15.5348 15.2459 11.4924 15.2508ZM5.34712 7.97456C5.32306 11.271 8.08051 14.0717 11.3625 14.1102C14.8418 14.1536 17.5896 11.4635 17.6474 8.11414C17.7051 4.63966 14.9958 1.84855 11.6031 1.82448C8.01795 1.80042 5.35675 4.63482 5.34712 7.97456Z" fill="#949494"/>
<path d="M11.4736 15.4624C9.52939 15.4624 7.61409 14.6635 6.21371 13.2679C4.78927 11.8483 4.00488 9.94744 4.00488 7.91184C4.00488 3.88394 7.41681 0.472027 11.464 0.462402H11.4784C13.4803 0.462402 15.3763 1.25161 16.8104 2.68087C18.2252 4.09087 19.0048 5.94847 19.0048 7.90226C19.0048 12.0649 15.6362 15.4527 11.4928 15.4576H11.4736V15.4624ZM11.4736 0.890704H11.4591C7.64298 0.900329 4.42355 4.11493 4.42355 7.91665C4.42355 9.83676 5.16463 11.6318 6.51207 12.9696C7.83064 14.2881 9.64007 15.0389 11.4736 15.0389H11.4928C15.4004 15.0389 18.5813 11.8387 18.5813 7.90708C18.5813 6.06397 17.8451 4.31705 16.5072 2.98404C15.1502 1.63179 13.3648 0.890704 11.4736 0.890704ZM11.4447 14.3219C11.4158 14.3219 11.3869 14.3219 11.3532 14.3219C7.95576 14.2785 5.10688 11.3719 5.13095 7.96958C5.13095 6.2564 5.80466 4.64915 7.01736 3.45088C8.21562 2.26224 9.82295 1.61255 11.5506 1.61255H11.6035C13.2878 1.62699 14.8614 2.29592 16.0404 3.49899C17.2387 4.73094 17.8884 6.36711 17.8595 8.11879C17.8017 11.6125 14.9962 14.3219 11.4495 14.3219H11.4447ZM11.5506 2.03603C9.93845 2.03603 8.43702 2.64241 7.31575 3.74924C6.18486 4.87051 5.55924 6.3719 5.55443 7.96958C5.53037 11.1409 8.18676 13.8551 11.3581 13.8936C11.3869 13.8936 11.4158 13.8936 11.4399 13.8936C14.7507 13.8936 17.3734 11.3671 17.4264 8.10916C17.4552 6.47297 16.8489 4.94268 15.7276 3.79254C14.6304 2.67127 13.1627 2.04566 11.5939 2.03603H11.5458H11.5506Z" fill="#949494"/>
<path d="M11.512 16.4923C13.1771 16.4923 14.8421 16.4923 16.5072 16.4923C19.2021 16.4971 21.5697 18.2006 22.4552 20.7319C22.6862 21.3863 22.8017 22.0553 22.7872 22.7434C22.7776 23.2006 22.5129 23.3931 22.0702 23.3065C21.82 23.2584 21.7478 23.0851 21.7045 22.8734C21.6275 22.474 21.6323 22.0649 21.5457 21.6655C21.1029 19.5529 19.2839 17.9119 17.1328 17.6761C16.5024 17.6039 15.8768 17.6328 15.2464 17.628C12.2964 17.628 9.34166 17.5991 6.39172 17.6376C4.58229 17.6616 3.15786 18.4846 2.1569 19.986C1.65161 20.7463 1.37731 21.5933 1.34844 22.5173C1.34844 22.628 1.33399 22.7386 1.30993 22.8493C1.24256 23.191 1.05969 23.3401 0.737264 23.3161C0.39559 23.292 0.222368 23.1188 0.217556 22.7579C0.193495 21.1843 0.742083 19.8176 1.7671 18.653C3.0183 17.2285 4.6208 16.5115 6.51684 16.4923C8.1819 16.4778 9.84696 16.4923 11.512 16.4923Z" fill="#949494"/>
<path d="M22.2625 23.5374C22.1903 23.5374 22.1133 23.5326 22.0315 23.5133C21.5984 23.4315 21.5262 23.0562 21.5021 22.9166C21.4636 22.7193 21.4444 22.5172 21.4251 22.3151C21.4059 22.1033 21.3866 21.906 21.3433 21.7087C20.9198 19.6876 19.1778 18.114 17.1133 17.883C16.6273 17.83 16.1268 17.83 15.6456 17.8348H15.251H13.1528C10.9391 17.83 8.64847 17.8204 6.39631 17.8493C4.68313 17.8733 3.31644 18.6337 2.33473 20.1063C1.84868 20.8377 1.58883 21.651 1.55995 22.5268C1.55995 22.6471 1.54069 22.7722 1.51663 22.8925C1.40595 23.4556 1.02579 23.547 0.7178 23.5278C0.260631 23.4941 0.00558367 23.2246 0.000771372 22.7627C-0.0232901 21.1842 0.515667 19.7549 1.60325 18.5134C2.88813 17.0504 4.53876 16.2997 6.5118 16.2804C7.67157 16.2708 8.83133 16.2708 9.9959 16.2756H11.5118H13.0084C14.1778 16.2756 15.3424 16.2756 16.507 16.2756C19.2692 16.2804 21.7427 18.0418 22.6571 20.6597C22.9025 21.3623 23.0132 22.0456 22.9988 22.7434C22.9939 23.0995 22.8496 23.2871 22.7341 23.3786C22.6426 23.4508 22.4935 23.5278 22.2625 23.5278V23.5374ZM16.0113 17.4161C16.3915 17.4161 16.7764 17.4258 17.1614 17.4691C19.4088 17.7194 21.3 19.4277 21.762 21.6269C21.8101 21.8483 21.8294 22.0649 21.8486 22.2814C21.8679 22.4691 21.8823 22.6567 21.9208 22.8396C21.9593 23.0369 22.0122 23.0802 22.1181 23.0995C22.2336 23.1236 22.3828 23.1332 22.4742 23.061C22.5608 22.9936 22.5801 22.8493 22.5849 22.7434C22.5993 22.0937 22.4935 21.4585 22.2625 20.804C21.4107 18.3594 19.1008 16.7135 16.5118 16.7039C15.3472 16.7039 14.1778 16.7039 13.0132 16.7039H11.5118H9.99111C8.83135 16.7039 7.67157 16.6991 6.51662 16.7087C4.66869 16.728 3.12396 17.4306 1.92569 18.7973C0.910297 19.957 0.405012 21.2901 0.429073 22.7578C0.429073 23.0033 0.515691 23.0899 0.756306 23.1043C0.939174 23.1187 1.05466 23.0754 1.10759 22.8108C1.12684 22.7145 1.13647 22.6135 1.14128 22.5172C1.17016 21.5644 1.45408 20.6741 1.98344 19.8753C3.04696 18.2776 4.53395 17.4546 6.39631 17.4306C8.64847 17.4017 10.9439 17.4065 13.1576 17.4161H15.2558H15.6456C15.7659 17.4161 15.891 17.4161 16.0161 17.4161H16.0113Z" fill="#949494"/>
</svg>
